<svg id="Layer_1" height="512" viewBox="0 0 512 512" width="512" xmlns="http://www.w3.org/2000/svg" data-name="Layer 1"><path d="m367.81 279.32q-7.365-1.77-14.55-4.12l-26.26-10.57c-4-2.05-8.56-4.22-12.72-6.51l-16.28-8.9-84 2.32-19.88 9.99c-3.01 1.51-6.12 2.94-9.12 4.29l-26.285 9.58c-4.81 1.45-9.622 2.75-14.522 3.92a81.228 81.228 0 0 0 -62.193 79.01v72.67h348v-72.67a81.227 81.227 0 0 0 -62.19-79.01z" fill="#6994fe"/><path d="m112 358.33a81.228 81.228 0 0 1 62.193-79.01c4.9-1.17 9.712-2.47 14.522-3.92l26.285-9.58c3-1.35 6.11-2.78 9.12-4.29l16.41-10.723-26.53.733-19.88 9.99c-3.01 1.51-6.12 2.94-9.12 4.29l-26.285 9.58c-4.81 1.45-9.622 2.75-14.522 3.92a81.228 81.228 0 0 0 -62.193 79.01v72.67h30z" fill="#5682d8"/><path d="m349.21 86.14a13.559 13.559 0 0 0 -12.35-10.21l-6.58-.38a21.268 21.268 0 0 0 -16.39-28.79l-2.21-.36-9.8-10.58a28.666 28.666 0 0 0 -36.09-4.92l-3.04-1.61a28.38 28.38 0 0 0 -29.21 1.61l-2.48-.33a53.947 53.947 0 0 0 -53.34 25.75c-11.37 2.8-15.35 12.125-15.35 24.065 0 27.81 21.59 68.615 21.59 68.615h.29l141.53-15.425a70.2 70.2 0 0 0 18.27-26.951l4.7-12.4a13.463 13.463 0 0 0 .46-8.084z" fill="#6d7486"/><path d="m342.75 157.15a13.563 13.563 0 0 1 -20.31 13.59h-2.13v-21.37h2.13a11.507 11.507 0 0 1 14.6-1.48 13.518 13.518 0 0 1 5.71 9.26z" fill="#efc597"/><path d="m186.25 149.37v21.37h-2.29a13.564 13.564 0 0 1 -14.59-22.85 11.492 11.492 0 0 1 14.59 1.48z" fill="#efc597"/><path d="m82 431h348v55h-348z" fill="#ffd8b7"/><path d="m214 234.89v57.75a55 55 0 0 0 84 0v-62.07z" fill="#efc597"/><path d="m352.85 352 .386-76.81-26.236-10.56v87.37z" fill="#b8d2d8"/><path d="m185 351v-85.18l-26.235 9.562.385 75.618z" fill="#b8d2d8"/><path d="m367 486-10.14-134.69a3.814 3.814 0 0 0 -3.56-3.475c-.14-.02-.3.165-.445.165h-193.705c-.15 0-.3-.185-.44-.165a3.916 3.916 0 0 0 -3.57 3.572l-10.14 134.593" fill="#cae6ee"/><path d="m317.73 485.74v.26h-113.08v-60.41a121.672 121.672 0 0 0 113.08.21z" fill="#b8d2d8"/><path d="m320.96 92.192c0-11.27-13.72-33.646-39.39-19.046-14.22 8.09-31.14 17.862-58.97 5.172l-.145.036c-12.61 16.84-28.455 16.476-38.455 13.706v86.06a69.183 69.183 0 0 0 114.119 52.45c1.36-1.16 2.54-2.38 3.8-3.64a68.7 68.7 0 0 0 20.081-48.81z" fill="#ffd8b7"/><path d="m82 431h30v55h-30z" fill="#d3ae92"/><g fill="#efc597"><path d="m296.939 155.01a6 6 0 0 1 -6-6 5.908 5.908 0 0 0 -11.816 0 6 6 0 0 1 -12 0 17.908 17.908 0 0 1 35.816 0 6 6 0 0 1 -6 6z"/><path d="m233.428 155.01a6 6 0 0 1 -6-6 5.908 5.908 0 1 0 -11.816 0 6 6 0 0 1 -12 0 17.908 17.908 0 1 1 35.816 0 6 6 0 0 1 -6 6z"/><path d="m253.275 207.828a33.969 33.969 0 0 1 -24.094-9.965 6 6 0 1 1 8.485-8.485 22.1 22.1 0 0 0 31.219 0 6 6 0 0 1 8.486 8.485 33.972 33.972 0 0 1 -24.096 9.965z"/></g><path d="m176.022 384.17a6 6 0 0 1 -6-6v-4.111a6 6 0 0 1 12 0v4.111a6 6 0 0 1 -6 6z" fill="#f4f8fc"/><path d="m176.022 459.824a6 6 0 0 1 -6-6v-56a6 6 0 0 1 12 0v56a6 6 0 0 1 -6 6z" fill="#f4f8fc"/></svg>