<svg id="Capa_1" enable-background="new 0 0 502 502" height="512" viewBox="0 0 502 502" width="512" xmlns="http://www.w3.org/2000/svg" xmlns:xlink="http://www.w3.org/1999/xlink"><linearGradient id="lg1"><stop offset="0" stop-color="#996c66"/><stop offset="1" stop-color="#ba8a6c"/></linearGradient><linearGradient id="SVGID_1_" gradientUnits="userSpaceOnUse" x1="245.365" x2="-77.048" xlink:href="#lg1" y1="271.681" y2="271.681"/><linearGradient id="SVGID_2_" gradientUnits="userSpaceOnUse" x1="370.535" x2="370.535" xlink:href="#lg1" y1="-12.967" y2="411.209"/><linearGradient id="SVGID_3_" gradientUnits="userSpaceOnUse" x1="251" x2="251" y1="311.42" y2="4.077"><stop offset="0" stop-color="#ad7d63"/><stop offset="1" stop-color="#cb9d82"/></linearGradient><linearGradient id="lg2"><stop offset="0" stop-color="#f4c22c"/><stop offset="1" stop-color="#f9e198"/></linearGradient><linearGradient id="SVGID_4_" gradientUnits="userSpaceOnUse" x1="251" x2="251" xlink:href="#lg2" y1="226.825" y2="71.591"/><linearGradient id="SVGID_5_" gradientUnits="userSpaceOnUse" x1="263.444" x2="33.429" y1="414.555" y2="414.555"><stop offset="0" stop-color="#ec6f80"/><stop offset="1" stop-color="#eca0aa"/></linearGradient><linearGradient id="SVGID_6_" gradientUnits="userSpaceOnUse" x1="350.221" x2="350.221" y1="498.689" y2="315.329"><stop offset="0" stop-color="#eca0aa"/><stop offset="1" stop-color="#f8dde3"/></linearGradient><linearGradient id="SVGID_7_" gradientUnits="userSpaceOnUse" x1="377.741" x2="377.741" xlink:href="#lg2" y1="314.027" y2="160.623"/><g><path d="m11.93 97.769v229.527c0 23.024 14.4 43.59 36.036 51.465l165.382 60.194c12.161 4.426 24.906 6.639 37.653 6.639l9.859-169.597-9.86-178.228z" fill="url(#SVGID_1_)"/><path d="m490.07 97.769v229.527c0 23.024-14.4 43.59-36.036 51.465l-165.382 60.194c-12.161 4.426-24.906 6.639-37.653 6.639v-347.825z" fill="url(#SVGID_2_)"/><path d="m472.953 73.323-182.191-66.312c-25.684-9.348-53.84-9.348-79.523 0l-40.685 14.808-23.914 28.747-68.675 4.952-48.918 17.805c-22.823 8.307-22.823 40.585 0 48.891l182.192 66.312c25.684 9.348 53.84 9.348 79.523 0l182.192-66.312c22.822-8.306 22.822-40.584-.001-48.891z" fill="url(#SVGID_3_)"/><path d="m331.446 173.719 46.295 2.874 46.294-36.574-253.481-118.2-92.589 33.7z" fill="url(#SVGID_4_)"/><path d="m128.798 362.141h50.603c9.665 0 17.5-7.835 17.5-17.5 0-9.665-7.835-17.5-17.5-17.5h-50.604c-34.08 0-62.722 23.662-70.404 55.415l33.29 12.117c2.409-18.357 18.101-32.532 37.115-32.532z" fill="#8c5f59"/><path d="m334.443 466.968h-205.645c-20.681 0-37.445-16.765-37.445-37.445v-29.936c0-20.681 16.765-37.445 37.445-37.445h205.644v104.826z" fill="url(#SVGID_5_)"/><path d="m401.529 392.542-55.763-55.764c-20.655-20.654-55.971-6.026-55.971 23.184v109.185c0 29.21 35.316 43.838 55.971 23.184l55.763-55.763c12.157-12.158 12.157-31.869 0-44.026z" fill="url(#SVGID_6_)"/><path d="m405.188 256.586-34.952 12.89c-18.816 6.939-38.79-6.984-38.79-27.038v-68.719l92.589-34.147v89.975c0 12.071-7.522 22.862-18.847 27.039z" fill="url(#SVGID_7_)"/><path d="m151.61 238.165c-1.322 0-2.666-.229-3.979-.713l-52.464-19.349c-5.959-2.198-9.008-8.809-6.811-14.768 2.198-5.96 8.813-9.008 14.77-6.811l52.464 19.349c5.959 2.198 9.008 8.809 6.811 14.768-1.714 4.647-6.112 7.524-10.791 7.524z" fill="#8c5f59"/></g></svg>