<svg id="Layer_1" height="512" viewBox="0 0 512 512" width="512" xmlns="http://www.w3.org/2000/svg" data-name="Layer 1"><path d="m388.69 234h-266.03s-70.03 104.45-48.23 209.23a19.785 19.785 0 0 0 19.29 15.77h334.23a17.921 17.921 0 0 0 2.44-.35 19.7 19.7 0 0 0 17.26-19.615c-.45-151.3-58.96-205.035-58.96-205.035z" fill="#ffd47d"/><path d="m104.43 443.23c-21.8-104.78 48.23-209.23 48.23-209.23h-30s-70.03 104.45-48.23 209.23a19.785 19.785 0 0 0 19.29 15.77h30a19.785 19.785 0 0 1 -19.29-15.77z" fill="#d3ad6a"/><path d="m450.98 130.66c60.14 100.35-40.96 103.14-40.96 103.14h-309.41c-12.2 0-132.48-25.47 11.33-164.22 109.33-105.48 278.9-39.26 339.04 61.08z" fill="#ff8383"/><path d="m419.89 131.88a25.905 25.905 0 1 1 -25.87 25.9 25.895 25.895 0 0 1 25.87-25.9z" fill="#3d8cea"/><path d="m397.36 94.03a9.185 9.185 0 1 1 -9.17 9.18 9.171 9.171 0 0 1 9.17-9.18z" fill="#ffd47d"/><path d="m403.51 334.1a31.638 31.638 0 0 1 -.16 20.28h-59.34a31.638 31.638 0 0 1 -.16-20.28z" fill="#93c666"/><path d="m403.51 334.1h-59.66a31.421 31.421 0 0 1 59.66 0z" fill="#3d8cea"/><path d="m344.01 354.38h59.34a31.415 31.415 0 0 1 -59.34 0z" fill="#3d8cea"/><ellipse cx="361.17" cy="206.52" fill="#ffd47d" rx="8.62" ry="8.63"/><path d="m300.16 144.19a24.345 24.345 0 1 1 -24.32 24.35 24.333 24.333 0 0 1 24.32-24.35z" fill="#ffd47d"/><path d="m316.68 360.08v98.54h-113.66v-98.54a56.83 56.83 0 1 1 113.66 0z" fill="#c97d57"/><ellipse cx="308.06" cy="80.7" fill="#3d8cea" rx="8.62" ry="8.63"/><path d="m279.3 262.71a15.654 15.654 0 0 1 -2.52 9.79c-2.96 4.65-15.42 13.24-18.3 15.2a.977.977 0 0 1 -1.18-.05c-2.82-2.27-15.24-12.38-16.77-15.65l-.01-.01a15.576 15.576 0 0 1 -2.17-8.18c.08-7.58 5.19-13.64 11.52-13.65a10.547 10.547 0 0 1 8.07 3.97 1.16 1.16 0 0 0 1.84 0 10.493 10.493 0 0 1 8.78-3.97c5.66.39 10.29 5.79 10.74 12.55z" fill="#ff8383"/><ellipse cx="256" cy="57.74" fill="#ffd47d" rx="24.32" ry="24.34"/><ellipse cx="223.06" cy="182.22" fill="#3d8cea" rx="8.62" ry="8.63"/><path d="m191.26 104.44a24.345 24.345 0 1 1 -24.31 24.35 24.335 24.335 0 0 1 24.31-24.35z" fill="#93c666"/><path d="m176.82 334.1a31.726 31.726 0 0 1 -.15 20.28h-59.35a31.638 31.638 0 0 1 -.16-20.28z" fill="#93c666"/><g fill="#3d8cea"><path d="m176.82 334.1h-59.66a31.421 31.421 0 0 1 59.66 0z"/><path d="m117.32 354.38h59.34a31.415 31.415 0 0 1 -59.34 0z"/><ellipse cx="158.33" cy="83.39" rx="8.62" ry="8.63"/><path d="m136 193.26a8.635 8.635 0 1 1 -8.62 8.63 8.629 8.629 0 0 1 8.62-8.63z"/></g><circle cx="287.25" cy="396.56" fill="#5d5d5d" r="8"/><path d="m430.39 458.46a17.859 17.859 0 0 1 -2.44.16h-334.23v18.66a9.694 9.694 0 0 0 9.69 9.7h317.31a9.688 9.688 0 0 0 9.69-9.7v-18.66z" fill="#3d8cea"/><path d="m320.94 458.62v28.87a8.508 8.508 0 0 1 -8.5 8.51h-105.31a8.508 8.508 0 0 1 -8.5-8.51v-28.87z" fill="#337cc4"/><path d="m141.94 69.68c35.06-33.826 76.316-50.043 118.171-53.092-51.806-3.663-104.741 11.217-148.171 53.117-143.81 138.75-23.53 164.295-11.33 164.295h30c-12.2 0-132.48-25.57 11.33-164.32z" fill="#d66969"/><path d="m124 477.28v-18.28h-30v18.28a9.477 9.477 0 0 0 9.41 9.72h30a9.477 9.477 0 0 1 -9.41-9.72z" fill="#367bbf"/><path d="m86.84 154.21a24.345 24.345 0 1 1 -24.31 24.34 24.333 24.333 0 0 1 24.31-24.34z" fill="#3d8cea"/></svg>